<svg id="my-svg" width="100%" xmlns="http://www.w3.org/2000/svg" xmlns:xlink="http://www.w3.org/1999/xlink" class="classDiagram" style="max-width: 1800px; background-color: white; max-height: 1800px;" viewBox="4 4 618.78125 1236" role="graphics-document document" aria-roledescription="classDiagram"><style>#my-svg{font-family:Arial;font-size:18px;fill:#0f172a;}@keyframes edge-animation-frame{from{stroke-dashoffset:0;}}@keyframes dash{to{stroke-dashoffset:0;}}#my-svg .edge-animation-slow{stroke-dasharray:9,5!important;stroke-dashoffset:900;animation:dash 50s linear infinite;stroke-linecap:round;}#my-svg .edge-animation-fast{stroke-dasharray:9,5!important;stroke-dashoffset:900;animation:dash 20s linear infinite;stroke-linecap:round;}#my-svg .error-icon{fill:#f8fafc;}#my-svg .error-text{fill:#070503;stroke:#070503;}#my-svg .edge-thickness-normal{stroke-width:1px;}#my-svg .edge-thickness-thick{stroke-width:3.5px;}#my-svg .edge-pattern-solid{stroke-dasharray:0;}#my-svg .edge-thickness-invisible{stroke-width:0;fill:none;}#my-svg .edge-pattern-dashed{stroke-dasharray:3;}#my-svg .edge-pattern-dotted{stroke-dasharray:2;}#my-svg .marker{fill:#475569;stroke:#475569;}#my-svg .marker.cross{stroke:#475569;}#my-svg svg{font-family:Arial;font-size:18px;}#my-svg p{margin:0;}#my-svg g.classGroup text{fill:#475569;stroke:none;font-family:Arial;font-size:10px;}#my-svg g.classGroup text .title{font-weight:bolder;}#my-svg .cluster-label text{fill:#070503;}#my-svg .cluster-label span{color:#070503;}#my-svg .cluster-label span p{background-color:transparent;}#my-svg .cluster rect{fill:#f8fafc;stroke:hsl(210, 0%, 88.0392156863%);stroke-width:1px;}#my-svg .cluster text{fill:#070503;}#my-svg .cluster span{color:#070503;}#my-svg .nodeLabel,#my-svg .edgeLabel{color:#0f172a;}#my-svg .noteLabel .nodeLabel,#my-svg .noteLabel .edgeLabel{color:#333;}#my-svg .edgeLabel .label rect{fill:#f8fafc;}#my-svg .label text{fill:#0f172a;}#my-svg .labelBkg{background:#f8fafc;}#my-svg .edgeLabel .label span{background:#f8fafc;}#my-svg .classTitle{font-weight:bolder;}#my-svg .node rect,#my-svg .node circle,#my-svg .node ellipse,#my-svg .node polygon,#my-svg .node path{fill:#f8fafc;stroke:#475569;stroke-width:1;}#my-svg .divider{stroke:#475569;stroke-width:1;}#my-svg g.clickable{cursor:pointer;}#my-svg g.classGroup rect{fill:#f8fafc;stroke:#475569;}#my-svg g.classGroup line{stroke:#475569;stroke-width:1;}#my-svg .classLabel .box{stroke:none;stroke-width:0;fill:#f8fafc;opacity:0.5;}#my-svg .classLabel .label{fill:#475569;font-size:10px;}#my-svg .relation{stroke:#475569;stroke-width:1;fill:none;}#my-svg .dashed-line{stroke-dasharray:3;}#my-svg .dotted-line{stroke-dasharray:1 2;}#my-svg [id$="-compositionStart"],#my-svg .composition{fill:#475569!important;stroke:#475569!important;stroke-width:1;}#my-svg [id$="-compositionEnd"],#my-svg .composition{fill:#475569!important;stroke:#475569!important;stroke-width:1;}#my-svg [id$="-dependencyStart"],#my-svg .dependency{fill:#475569!important;stroke:#475569!important;stroke-width:1;}#my-svg [id$="-dependencyEnd"],#my-svg .dependency{fill:#475569!important;stroke:#475569!important;stroke-width:1;}#my-svg [id$="-extensionStart"],#my-svg .extension{fill:transparent!important;stroke:#475569!important;stroke-width:1;}#my-svg [id$="-extensionEnd"],#my-svg .extension{fill:transparent!important;stroke:#475569!important;stroke-width:1;}#my-svg [id$="-aggregationStart"],#my-svg .aggregation{fill:transparent!important;stroke:#475569!important;stroke-width:1;}#my-svg [id$="-aggregationEnd"],#my-svg .aggregation{fill:transparent!important;stroke:#475569!important;stroke-width:1;}#my-svg [id$="-lollipopStart"],#my-svg .lollipop{fill:#f8fafc!important;stroke:#475569!important;stroke-width:1;}#my-svg [id$="-lollipopEnd"],#my-svg .lollipop{fill:#f8fafc!important;stroke:#475569!important;stroke-width:1;}#my-svg .edgeTerminals{font-size:11px;line-height:initial;}#my-svg .classTitleText{text-anchor:middle;font-size:18px;fill:#0f172a;}#my-svg .edgeLabel[data-look="neo"]{background-color:#eef2ff;text-align:center;}#my-svg .edgeLabel[data-look="neo"] p{background-color:#eef2ff;}#my-svg .edgeLabel[data-look="neo"] rect{opacity:0.5;background-color:#eef2ff;fill:#eef2ff;}#my-svg .label-icon{display:inline-block;height:1em;overflow:visible;vertical-align:-0.125em;}#my-svg .node .label-icon path{fill:currentColor;stroke:revert;stroke-width:revert;}#my-svg .node .neo-node{stroke:#475569;}#my-svg [data-look="neo"].node rect,#my-svg [data-look="neo"].cluster rect,#my-svg [data-look="neo"].node polygon{stroke:url(#my-svg-gradient);filter:drop-shadow( 1px 2px 2px rgba(185,185,185,1));}#my-svg [data-look="neo"].swimlane.cluster rect{filter:none;}#my-svg [data-look="neo"].node path{stroke:url(#my-svg-gradient);stroke-width:1px;}#my-svg [data-look="neo"].node .outer-path{filter:drop-shadow( 1px 2px 2px rgba(185,185,185,1));}#my-svg [data-look="neo"].node .neo-line path{stroke:#475569;filter:none;}#my-svg [data-look="neo"].node circle{stroke:url(#my-svg-gradient);filter:drop-shadow( 1px 2px 2px rgba(185,185,185,1));}#my-svg [data-look="neo"].node circle .state-start{fill:#000000;}#my-svg [data-look="neo"].icon-shape .icon{fill:url(#my-svg-gradient);filter:drop-shadow( 1px 2px 2px rgba(185,185,185,1));}#my-svg [data-look="neo"].icon-shape .icon-neo path{stroke:url(#my-svg-gradient);filter:drop-shadow( 1px 2px 2px rgba(185,185,185,1));}#my-svg :root{--mermaid-font-family:Arial;}</style><g><defs><marker id="my-svg_classDiagram-aggregationStart" class="marker aggregation classDiagram" refX="18" refY="7" markerWidth="190" markerHeight="240" orient="auto" markerUnits="userSpaceOnUse"><path d="M 18,7 L9,13 L1,7 L9,1 Z"/></marker></defs><defs><marker id="my-svg_classDiagram-aggregationEnd" class="marker aggregation classDiagram" refX="1" refY="7" markerWidth="20" markerHeight="28" orient="auto" markerUnits="userSpaceOnUse"><path d="M 18,7 L9,13 L1,7 L9,1 Z"/></marker></defs><defs><marker id="my-svg_classDiagram-aggregationStart-margin" class="marker aggregation classDiagram" refX="15" refY="7" markerWidth="190" markerHeight="240" orient="auto" markerUnits="userSpaceOnUse"><path d="M 18,7 L9,13 L1,7 L9,1 Z" style="stroke-width: 2;"/></marker></defs><defs><marker id="my-svg_classDiagram-aggregationEnd-margin" class="marker aggregation classDiagram" refX="1" refY="7" markerWidth="20" markerHeight="28" orient="auto" markerUnits="userSpaceOnUse"><path d="M 18,7 L9,13 L1,7 L9,1 Z" style="stroke-width: 2;"/></marker></defs><defs><marker id="my-svg_classDiagram-extensionStart" class="marker extension classDiagram" refX="18" refY="7" markerWidth="20" markerHeight="28" orient="auto" markerUnits="userSpaceOnUse"><path d="M 1,7 L18,13 V 1 Z"/></marker></defs><defs><marker id="my-svg_classDiagram-extensionEnd" class="marker extension classDiagram" refX="1" refY="7" markerWidth="20" markerHeight="28" orient="auto" markerUnits="userSpaceOnUse"><path d="M 1,1 V 13 L18,7 Z"/></marker></defs><marker id="my-svg_classDiagram-extensionStart-margin" class="marker extension classDiagram" refX="18" refY="7" markerWidth="20" markerHeight="28" orient="auto" markerUnits="userSpaceOnUse" viewBox="0 0 20 14"><polygon points="10,7 18,13 18,1" style="stroke-width: 2; stroke-dasharray: 0;"/></marker><defs><marker id="my-svg_classDiagram-extensionEnd-margin" class="marker extension classDiagram" refX="9" refY="7" markerWidth="20" markerHeight="28" orient="auto" markerUnits="userSpaceOnUse" viewBox="0 0 20 14"><polygon points="10,1 10,13 18,7" style="stroke-width: 2; stroke-dasharray: 0;"/></marker></defs><defs><marker id="my-svg_classDiagram-compositionStart" class="marker composition classDiagram" refX="18" refY="7" markerWidth="190" markerHeight="240" orient="auto" markerUnits="userSpaceOnUse"><path d="M 18,7 L9,13 L1,7 L9,1 Z"/></marker></defs><defs><marker id="my-svg_classDiagram-compositionEnd" class="marker composition classDiagram" refX="1" refY="7" markerWidth="20" markerHeight="28" orient="auto" markerUnits="userSpaceOnUse"><path d="M 18,7 L9,13 L1,7 L9,1 Z"/></marker></defs><defs><marker id="my-svg_classDiagram-compositionStart-margin" class="marker composition classDiagram" refX="15" refY="7" markerWidth="190" markerHeight="240" orient="auto" markerUnits="userSpaceOnUse"><path viewBox="0 0 15 15" d="M 18,7 L9,13 L1,7 L9,1 Z" style="stroke-width: 0;"/></marker></defs><defs><marker id="my-svg_classDiagram-compositionEnd-margin" class="marker composition classDiagram" refX="3.5" refY="7" markerWidth="20" markerHeight="28" orient="auto" markerUnits="userSpaceOnUse"><path d="M 18,7 L9,13 L1,7 L9,1 Z" style="stroke-width: 0;"/></marker></defs><defs><marker id="my-svg_classDiagram-dependencyStart" class="marker dependency classDiagram" refX="6" refY="7" markerWidth="190" markerHeight="240" orient="auto" markerUnits="userSpaceOnUse"><path d="M 5,7 L9,13 L1,7 L9,1 Z"/></marker></defs><defs><marker id="my-svg_classDiagram-dependencyEnd" class="marker dependency classDiagram" refX="13" refY="7" markerWidth="20" markerHeight="28" orient="auto" markerUnits="userSpaceOnUse"><path d="M 18,7 L9,13 L14,7 L9,1 Z"/></marker></defs><defs><marker id="my-svg_classDiagram-dependencyStart-margin" class="marker dependency classDiagram" refX="4" refY="7" markerWidth="190" markerHeight="240" orient="auto" markerUnits="userSpaceOnUse"><path d="M 5,7 L9,13 L1,7 L9,1 Z" style="stroke-width: 0;"/></marker></defs><defs><marker id="my-svg_classDiagram-dependencyEnd-margin" class="marker dependency classDiagram" refX="16" refY="7" markerWidth="20" markerHeight="28" orient="auto" markerUnits="userSpaceOnUse"><path d="M 18,7 L9,13 L14,7 L9,1 Z" style="stroke-width: 0;"/></marker></defs><defs><marker id="my-svg_classDiagram-lollipopStart" class="marker lollipop classDiagram" refX="13" refY="7" markerWidth="190" markerHeight="240" orient="auto" markerUnits="userSpaceOnUse"><circle fill="transparent" cx="7" cy="7" r="6"/></marker></defs><defs><marker id="my-svg_classDiagram-lollipopEnd" class="marker lollipop classDiagram" refX="1" refY="7" markerWidth="190" markerHeight="240" orient="auto" markerUnits="userSpaceOnUse"><circle fill="transparent" cx="7" cy="7" r="6"/></marker></defs><defs><marker id="my-svg_classDiagram-lollipopStart-margin" class="marker lollipop classDiagram" refX="13" refY="7" markerWidth="190" markerHeight="240" orient="auto" markerUnits="userSpaceOnUse"><circle fill="transparent" cx="7" cy="7" r="6" stroke-width="2"/></marker></defs><defs><marker id="my-svg_classDiagram-lollipopEnd-margin" class="marker lollipop classDiagram" refX="1" refY="7" markerWidth="190" markerHeight="240" orient="auto" markerUnits="userSpaceOnUse"><circle fill="transparent" cx="7" cy="7" r="6" stroke-width="2"/></marker></defs><g class="root"><g class="clusters"><g class="cluster undefined" id="my-svg-Monitoring" data-look="neo"><rect style="" x="12" y="421" width="271.4375" height="231"/><g class="cluster-label" transform="translate(105.6953125, 421)"><g><rect class="background" style="stroke: none"/><text y="-10.1" style=""><tspan class="text-outer-tspan row" x="0" y="-0.1em" dy="1.1em"><tspan font-style="normal" class="text-inner-tspan" font-weight="normal">Monitoring</tspan></tspan></text></g></g></g><g class="cluster undefined" id="my-svg-Emergency_Notification" data-look="neo"><rect style="" x="323.4375" y="394" width="265.09375" height="258"/><g class="cluster-label" transform="translate(360.9375, 394)"><g><rect class="background" style="stroke: none"/><text y="-10.1" style=""><tspan class="text-outer-tspan row" x="0" y="-0.1em" dy="1.1em"><tspan font-style="normal" class="text-inner-tspan" font-weight="normal">Emergency_Notification</tspan></tspan></text></g></g></g><g class="cluster undefined" id="my-svg-IAM_Profile" data-look="neo"><rect style="" x="174.8125" y="776" width="254.078125" height="456"/><g class="cluster-label" transform="translate(255.328125, 776)"><g><rect class="background" style="stroke: none"/><text y="-10.1" style=""><tspan class="text-outer-tspan row" x="0" y="-0.1em" dy="1.1em"><tspan font-style="normal" class="text-inner-tspan" font-weight="normal">IAM_Profile</tspan></tspan></text></g></g></g><g class="cluster undefined" id="my-svg-Triage_Scheduling_Future" data-look="neo"><rect style="" x="297.1875" y="12" width="317.59375" height="258"/><g class="cluster-label" transform="translate(350.25, 12)"><g><rect class="background" style="stroke: none"/><text y="-10.1" style=""><tspan class="text-outer-tspan row" x="0" y="-0.1em" dy="1.1em"><tspan font-style="normal" class="text-inner-tspan" font-weight="normal">Triage_Scheduling_Future</tspan></tspan></text></g></g></g></g><g class="edges edgePaths"><path d="M147.71875,628L147.71875,662L147.71875,738.9289321881345Q147.71875,746 154.78981781186548,746L264.03414052146786,746Q271.10520833333334,746 271.10520833333334,753.0710678118655L271.10520833333334,766L271.10520833333334,824" id="my-svg-id_VitalSignsTracker_PatientProfile_1" class="edge-thickness-normal edge-pattern-dashed relation" style="stroke-dasharray: 0 0 2 2 2 2 2 2 2 2 2 2 2 2 2 2 2 2 2 2 2 2 2 2 2 2 2 2 2 2 2 2 2 2 2 2 2 2 2 2 2 2 2 2 2 2 2 2 2 2 2 2 2 2 2 2 2 2 2 2 2 2 2 2 2 2 2 2 2 2 2 2 2 2 2 2 2 2 2 2 2 2 2 2 2 2 2 2 2 2 2 2 2 2 2 2 2 2 2 2 2 2 2 2 2 2 2 2 2 2 2 2 2 2 2 2 2 2 2 2 2 2 2 2 2 2 2 2 2 2 2 2 2 2 2 2 2 2 2 2 2 2 2 2 2 2 2 2 2 2 2 2 2 2 2 2 2 2 0; stroke-dashoffset: 0;;;;" data-edge="true" data-et="edge" data-id="id_VitalSignsTracker_PatientProfile_1" data-points="W3sieCI6MTQ3LjcxODc1LCJ5Ijo2Mjh9LHsieCI6MTQ3LjcxODc1LCJ5Ijo2NjJ9LHsieCI6MTQ3LjcxODc1LCJ5Ijo3NDZ9LHsieCI6MjcxLjEwNTIwODMzMzMzMzM0LCJ5Ijo3NDZ9LHsieCI6MjcxLjEwNTIwODMzMzMzMzM0LCJ5Ijo3NjZ9LHsieCI6MjcxLjEwNTIwODMzMzMzMzM0LCJ5Ijo4MzB9XQ==" data-look="neo" marker-end="url(#my-svg_classDiagram-dependencyEnd-margin)"/><path d="M455.984375,628L455.984375,662L455.984375,738.9289321881345Q455.984375,746 448.9133071881345,746L339.66898447853214,746Q332.59791666666666,746 332.59791666666666,753.0710678118655L332.59791666666666,766L332.59791666666666,824" id="my-svg-id_EmergencyAlert_PatientProfile_2" class="edge-thickness-normal edge-pattern-dashed relation" style="stroke-dasharray: 0 0 2 2 2 2 2 2 2 2 2 2 2 2 2 2 2 2 2 2 2 2 2 2 2 2 2 2 2 2 2 2 2 2 2 2 2 2 2 2 2 2 2 2 2 2 2 2 2 2 2 2 2 2 2 2 2 2 2 2 2 2 2 2 2 2 2 2 2 2 2 2 2 2 2 2 2 2 2 2 2 2 2 2 2 2 2 2 2 2 2 2 2 2 2 2 2 2 2 2 2 2 2 2 2 2 2 2 2 2 2 2 2 2 2 2 2 2 2 2 2 2 2 2 2 2 2 2 2 2 2 2 2 2 2 2 2 2 2 2 2 2 2 2 2 2 2 2 2 2 2 2 2 2 2 2 2 2 0; stroke-dashoffset: 0;;;;" data-edge="true" data-et="edge" data-id="id_EmergencyAlert_PatientProfile_2" data-points="W3sieCI6NDU1Ljk4NDM3NSwieSI6NjI4fSx7IngiOjQ1NS45ODQzNzUsInkiOjY2Mn0seyJ4Ijo0NTUuOTg0Mzc1LCJ5Ijo3NDZ9LHsieCI6MzMyLjU5NzkxNjY2NjY2NjY2LCJ5Ijo3NDZ9LHsieCI6MzMyLjU5NzkxNjY2NjY2NjY2LCJ5Ijo3NjZ9LHsieCI6MzMyLjU5NzkxNjY2NjY2NjY2LCJ5Ijo4MzB9XQ==" data-look="neo" marker-end="url(#my-svg_classDiagram-dependencyEnd-margin)"/><path d="M301.8515625,983L301.8515625,1049" id="my-svg-id_PatientProfile_UserAccount_3" class="edge-thickness-normal edge-pattern-dashed relation" style="stroke-dasharray: 0 0 2 2 2 2 2 2 2 2 2 2 2 2 2 2 2 2 2 2 2 2 2 2 2 2 2 2 2 2 2 2 2 2 0; stroke-dashoffset: 0;;;;" data-edge="true" data-et="edge" data-id="id_PatientProfile_UserAccount_3" data-points="W3sieCI6MzAxLjg1MTU2MjUsInkiOjk4M30seyJ4IjozMDEuODUxNTYyNSwieSI6MTA1NX1d" data-look="neo" marker-end="url(#my-svg_classDiagram-dependencyEnd-margin)"/><path d="M455.984375,246L455.984375,280L455.984375,384L455.984375,442" id="my-svg-id_TriageAssessment_EmergencyAlert_4" class="edge-thickness-normal edge-pattern-dashed relation" style="stroke-dasharray: 0 0 2 2 2 2 2 2 2 2 2 2 2 2 2 2 2 2 2 2 2 2 2 2 2 2 2 2 2 2 2 2 2 2 2 2 2 2 2 2 2 2 2 2 2 2 2 2 2 2 2 2 2 2 2 2 2 2 2 2 2 2 2 2 2 2 2 2 2 2 2 2 2 2 2 2 2 2 2 2 2 2 2 2 2 2 2 2 2 2 2 2 2 2 2 2 2 2 2 2 0; stroke-dashoffset: 0;;;;" data-edge="true" data-et="edge" data-id="id_TriageAssessment_EmergencyAlert_4" data-points="W3sieCI6NDU1Ljk4NDM3NSwieSI6MjQ2fSx7IngiOjQ1NS45ODQzNzUsInkiOjI4MH0seyJ4Ijo0NTUuOTg0Mzc1LCJ5IjozODR9LHsieCI6NDU1Ljk4NDM3NSwieSI6NDQ4fV0=" data-look="neo" marker-end="url(#my-svg_classDiagram-dependencyEnd-margin)"/></g><g class="edgeLabels"><g class="edgeLabel" transform="translate(147.2607421875, 714)"><g class="label" data-id="id_VitalSignsTracker_PatientProfile_1" transform="translate(-0.4951171875, -12.000001907348633)"><g><rect class="background" style="" x="-55.546875" y="0.0000019073486328125" width="112.083984375" height="24"/><text y="-10.1" text-anchor="middle" style=""><tspan class="text-outer-tspan row" x="0" y="-0.1em" dy="1.1em" text-anchor="middle"><tspan font-style="normal" class="text-inner-tspan" font-weight="normal">patientId</tspan><tspan font-style="normal" class="text-inner-tspan" font-weight="normal"> only</tspan></tspan></text></g></g></g><g class="edgeLabel" transform="translate(455.5263671875, 714)"><g class="label" data-id="id_EmergencyAlert_PatientProfile_2" transform="translate(-0.4951171875, -12.000001907348633)"><g><rect class="background" style="" x="-55.546875" y="0.0000019073486328125" width="112.083984375" height="24"/><text y="-10.1" text-anchor="middle" style=""><tspan class="text-outer-tspan row" x="0" y="-0.1em" dy="1.1em" text-anchor="middle"><tspan font-style="normal" class="text-inner-tspan" font-weight="normal">patientId</tspan><tspan font-style="normal" class="text-inner-tspan" font-weight="normal"> only</tspan></tspan></text></g></g></g><g class="edgeLabel" transform="translate(301.3935546875, 1019)"><g class="label" data-id="id_PatientProfile_UserAccount_3" transform="translate(-0.4951171875, -12.000001907348633)"><g><rect class="background" style="" x="-85.546875" y="0.0000019073486328125" width="172.083984375" height="24"/><text y="-10.1" text-anchor="middle" style=""><tspan class="text-outer-tspan row" x="0" y="-0.1em" dy="1.1em" text-anchor="middle"><tspan font-style="normal" class="text-inner-tspan" font-weight="normal">caregiver</tspan><tspan font-style="normal" class="text-inner-tspan" font-weight="normal"> userId</tspan><tspan font-style="normal" class="text-inner-tspan" font-weight="normal"> only</tspan></tspan></text></g></g></g><g class="edgeLabel" transform="translate(455.5107421875, 332)"><g class="label" data-id="id_TriageAssessment_EmergencyAlert_4" transform="translate(-0.4951171875, -12.000001907348633)"><g><rect class="background" style="" x="-46.03125" y="0.0000019073486328125" width="93.052734375" height="24"/><text y="-10.1" text-anchor="middle" style=""><tspan class="text-outer-tspan row" x="0" y="-0.1em" dy="1.1em" text-anchor="middle"><tspan font-style="normal" class="text-inner-tspan" font-weight="normal">alertId</tspan><tspan font-style="normal" class="text-inner-tspan" font-weight="normal"> only</tspan></tspan></text></g></g></g></g><g class="nodes"><g class="node default" id="my-svg-classId-VitalSignsTracker-0" data-look="neo" transform="translate(147.71875, 551.5)"><g class="basic label-container outer-path"><path d="M-111.71875 -76.5 L111.71875 -76.5 L111.71875 76.5 L-111.71875 76.5" stroke="none" stroke-width="0" fill="#f8fafc" style=""/><path d="M-111.71875 -76.5 C-28.0743574103965 -76.5, 55.570035179207 -76.5, 111.71875 -76.5 M-111.71875 -76.5 C-57.21875770519134 -76.5, -2.718765410382673 -76.5, 111.71875 -76.5 M111.71875 -76.5 C111.71875 -22.430105552179505, 111.71875 31.63978889564099, 111.71875 76.5 M111.71875 -76.5 C111.71875 -43.62838925638253, 111.71875 -10.756778512765067, 111.71875 76.5 M111.71875 76.5 C57.19278410681276 76.5, 2.6668182136255183 76.5, -111.71875 76.5 M111.71875 76.5 C39.90306445958056 76.5, -31.912621080838875 76.5, -111.71875 76.5 M-111.71875 76.5 C-111.71875 18.06042748195859, -111.71875 -40.37914503608282, -111.71875 -76.5 M-111.71875 76.5 C-111.71875 15.695097913861012, -111.71875 -45.109804172277975, -111.71875 -76.5" stroke="#475569" stroke-width="1.3" fill="none" stroke-dasharray="0 0" style=""/></g><g class="annotation-group text" transform="translate(-22.515625, -52.5)"><g class="label" style="" transform="translate(0,-13.5)"><foreignObject width="45.03125" height="27"><div xmlns="http://www.w3.org/1999/xhtml" style="display: table-cell; white-space: nowrap; line-height: 1.5; max-width: 90px; text-align: center;"><span class="nodeLabel markdown-node-label" style=""><p>«AR»</p></span></div></foreignObject></g></g><g class="label-group text" transform="translate(-75.375, -25.5)"><g class="label" style="font-weight: bolder" transform="translate(0,-13.5)"><foreignObject width="150.75" height="27"><div xmlns="http://www.w3.org/1999/xhtml" style="display: table-cell; white-space: nowrap; line-height: 1.5; max-width: 176px; text-align: center;"><span class="nodeLabel markdown-node-label" style=""><p>VitalSignsTracker</p></span></div></foreignObject></g></g><g class="members-group text" transform="translate(-99.71875, 25.5)"><g class="label" style="" transform="translate(0,-13.5)"><foreignObject width="124.0625" height="27"><div xmlns="http://www.w3.org/1999/xhtml" style="display: table-cell; white-space: nowrap; line-height: 1.5; max-width: 165px; text-align: center;"><span class="nodeLabel markdown-node-label" style=""><p>-UUID patientId</p></span></div></foreignObject></g></g><g class="methods-group text" transform="translate(-99.71875, 76.5)"/><g class="divider" style=""><path d="M-111.71875 1.5 C-58.49009912806918 1.5002382261297764, -5.261448256138365 1.5004764522595528, 111.71875 1.501 M-111.71875 1.5 C-60.71328670380187 1.5002282761993675, -9.70782340760374 1.5004565523987352, 111.71875 1.501" stroke="#475569" stroke-width="1.3" fill="none" stroke-dasharray="0 0" style=""/></g><g class="divider" style=""><path d="M-111.71875 52.5 C-66.1441157156325 52.500203970391205, -20.569481431265004 52.5004079407824, 111.71875 52.501 M-111.71875 52.5 C-32.42112854230366 52.500354898445686, 46.876492915392674 52.50070979689137, 111.71875 52.501" stroke="#475569" stroke-width="1.3" fill="none" stroke-dasharray="0 0" style=""/></g></g><g class="node default" id="my-svg-classId-EmergencyAlert-1" data-look="neo" transform="translate(455.984375, 538)"><g class="basic label-container outer-path"><path d="M-108.546875 -90 L108.546875 -90 L108.546875 90 L-108.546875 90" stroke="none" stroke-width="0" fill="#f8fafc" style=""/><path d="M-108.546875 -90 C-42.448973967208474 -90, 23.648927065583052 -90, 108.546875 -90 M-108.546875 -90 C-46.16430419142944 -90, 16.218266617141126 -90, 108.546875 -90 M108.546875 -90 C108.546875 -47.826205450886654, 108.546875 -5.652410901773308, 108.546875 90 M108.546875 -90 C108.546875 -50.560657502368976, 108.546875 -11.121315004737951, 108.546875 90 M108.546875 90 C38.004132010564135 90, -32.53861097887173 90, -108.546875 90 M108.546875 90 C52.434754062854566 90, -3.6773668742908683 90, -108.546875 90 M-108.546875 90 C-108.546875 46.07887047247461, -108.546875 2.157740944949225, -108.546875 -90 M-108.546875 90 C-108.546875 51.193368830196135, -108.546875 12.38673766039227, -108.546875 -90" stroke="#475569" stroke-width="1.3" fill="none" stroke-dasharray="0 0" style=""/></g><g class="annotation-group text" transform="translate(-22.515625, -66)"><g class="label" style="" transform="translate(0,-13.5)"><foreignObject width="45.03125" height="27"><div xmlns="http://www.w3.org/1999/xhtml" style="display: table-cell; white-space: nowrap; line-height: 1.5; max-width: 90px; text-align: center;"><span class="nodeLabel markdown-node-label" style=""><p>«AR»</p></span></div></foreignObject></g></g><g class="label-group text" transform="translate(-69.03125, -39)"><g class="label" style="font-weight: bolder" transform="translate(0,-13.5)"><foreignObject width="138.0625" height="27"><div xmlns="http://www.w3.org/1999/xhtml" style="display: table-cell; white-space: nowrap; line-height: 1.5; max-width: 164px; text-align: center;"><span class="nodeLabel markdown-node-label" style=""><p>EmergencyAlert</p></span></div></foreignObject></g></g><g class="members-group text" transform="translate(-96.546875, 12)"><g class="label" style="" transform="translate(0,-13.5)"><foreignObject width="105.03125" height="27"><div xmlns="http://www.w3.org/1999/xhtml" style="display: table-cell; white-space: nowrap; line-height: 1.5; max-width: 148px; text-align: center;"><span class="nodeLabel markdown-node-label" style=""><p>-UUID alertId</p></span></div></foreignObject></g><g class="label" style="" transform="translate(0,13.5)"><foreignObject width="124.0625" height="27"><div xmlns="http://www.w3.org/1999/xhtml" style="display: table-cell; white-space: nowrap; line-height: 1.5; max-width: 165px; text-align: center;"><span class="nodeLabel markdown-node-label" style=""><p>-UUID patientId</p></span></div></foreignObject></g></g><g class="methods-group text" transform="translate(-96.546875, 90)"/><g class="divider" style=""><path d="M-108.546875 -12 C-51.02474295939985 -11.999735035522486, 6.497389081200296 -11.99947007104497, 108.546875 -11.999 M-108.546875 -12 C-24.637325701258064 -11.999613487033603, 59.27222359748387 -11.999226974067206, 108.546875 -11.999" stroke="#475569" stroke-width="1.3" fill="none" stroke-dasharray="0 0" style=""/></g><g class="divider" style=""><path d="M-108.546875 66 C-32.77143748645878 66.00034904476759, 43.00400002708244 66.00069808953518, 108.546875 66.001 M-108.546875 66 C-49.94570551354947 66.00026993485297, 8.65546397290106 66.00053986970593, 108.546875 66.001" stroke="#475569" stroke-width="1.3" fill="none" stroke-dasharray="0 0" style=""/></g></g><g class="node default" id="my-svg-classId-UserAccount-2" data-look="neo" transform="translate(301.8515625, 1131.5)"><g class="basic label-container outer-path"><path d="M-92.5234375 -76.5 L92.5234375 -76.5 L92.5234375 76.5 L-92.5234375 76.5" stroke="none" stroke-width="0" fill="#f8fafc" style=""/><path d="M-92.5234375 -76.5 C-31.91836647929729 -76.5, 28.68670454140542 -76.5, 92.5234375 -76.5 M-92.5234375 -76.5 C-35.220483222704146 -76.5, 22.082471054591707 -76.5, 92.5234375 -76.5 M92.5234375 -76.5 C92.5234375 -27.82604981215944, 92.5234375 20.84790037568112, 92.5234375 76.5 M92.5234375 -76.5 C92.5234375 -28.23354846358025, 92.5234375 20.032903072839503, 92.5234375 76.5 M92.5234375 76.5 C43.33608183787948 76.5, -5.851273824241034 76.5, -92.5234375 76.5 M92.5234375 76.5 C38.40447229287241 76.5, -15.714492914255175 76.5, -92.5234375 76.5 M-92.5234375 76.5 C-92.5234375 35.77792908071204, -92.5234375 -4.944141838575916, -92.5234375 -76.5 M-92.5234375 76.5 C-92.5234375 17.19620791053353, -92.5234375 -42.10758417893294, -92.5234375 -76.5" stroke="#475569" stroke-width="1.3" fill="none" stroke-dasharray="0 0" style=""/></g><g class="annotation-group text" transform="translate(-22.515625, -52.5)"><g class="label" style="" transform="translate(0,-13.5)"><foreignObject width="45.03125" height="27"><div xmlns="http://www.w3.org/1999/xhtml" style="display: table-cell; white-space: nowrap; line-height: 1.5; max-width: 90px; text-align: center;"><span class="nodeLabel markdown-node-label" style=""><p>«AR»</p></span></div></foreignObject></g></g><g class="label-group text" transform="translate(-56.015625, -25.5)"><g class="label" style="font-weight: bolder" transform="translate(0,-13.5)"><foreignObject width="112.03125" height="27"><div xmlns="http://www.w3.org/1999/xhtml" style="display: table-cell; white-space: nowrap; line-height: 1.5; max-width: 142px; text-align: center;"><span class="nodeLabel markdown-node-label" style=""><p>UserAccount</p></span></div></foreignObject></g></g><g class="members-group text" transform="translate(-80.5234375, 25.5)"><g class="label" style="" transform="translate(0,-13.5)"><foreignObject width="105.03125" height="27"><div xmlns="http://www.w3.org/1999/xhtml" style="display: table-cell; white-space: nowrap; line-height: 1.5; max-width: 148px; text-align: center;"><span class="nodeLabel markdown-node-label" style=""><p>-UUID userId</p></span></div></foreignObject></g></g><g class="methods-group text" transform="translate(-80.5234375, 76.5)"/><g class="divider" style=""><path d="M-92.5234375 1.5 C-45.0678482010725 1.5002564517195922, 2.387741097854999 1.5005129034391844, 92.5234375 1.501 M-92.5234375 1.5 C-38.56212131911553 1.500291608902776, 15.399194861768933 1.500583217805552, 92.5234375 1.501" stroke="#475569" stroke-width="1.3" fill="none" stroke-dasharray="0 0" style=""/></g><g class="divider" style=""><path d="M-92.5234375 52.5 C-32.363922105132374 52.500325104195326, 27.79559328973525 52.50065020839065, 92.5234375 52.501 M-92.5234375 52.5 C-27.420967757115307 52.50035181609926, 37.68150198576939 52.50070363219852, 92.5234375 52.501" stroke="#475569" stroke-width="1.3" fill="none" stroke-dasharray="0 0" style=""/></g></g><g class="node default" id="my-svg-classId-PatientProfile-3" data-look="neo" transform="translate(301.8515625, 906.5)"><g class="basic label-container outer-path"><path d="M-103.0390625 -76.5 L103.0390625 -76.5 L103.0390625 76.5 L-103.0390625 76.5" stroke="none" stroke-width="0" fill="#f8fafc" style=""/><path d="M-103.0390625 -76.5 C-34.20007212893431 -76.5, 34.63891824213138 -76.5, 103.0390625 -76.5 M-103.0390625 -76.5 C-58.921127182315416 -76.5, -14.803191864630833 -76.5, 103.0390625 -76.5 M103.0390625 -76.5 C103.0390625 -18.555806921496888, 103.0390625 39.388386157006224, 103.0390625 76.5 M103.0390625 -76.5 C103.0390625 -17.002795179845513, 103.0390625 42.49440964030897, 103.0390625 76.5 M103.0390625 76.5 C53.24305714076075 76.5, 3.4470517815214947 76.5, -103.0390625 76.5 M103.0390625 76.5 C37.12884871219572 76.5, -28.781365075608562 76.5, -103.0390625 76.5 M-103.0390625 76.5 C-103.0390625 32.153225660809326, -103.0390625 -12.193548678381347, -103.0390625 -76.5 M-103.0390625 76.5 C-103.0390625 39.90131266477139, -103.0390625 3.302625329542778, -103.0390625 -76.5" stroke="#475569" stroke-width="1.3" fill="none" stroke-dasharray="0 0" style=""/></g><g class="annotation-group text" transform="translate(-22.515625, -52.5)"><g class="label" style="" transform="translate(0,-13.5)"><foreignObject width="45.03125" height="27"><div xmlns="http://www.w3.org/1999/xhtml" style="display: table-cell; white-space: nowrap; line-height: 1.5; max-width: 90px; text-align: center;"><span class="nodeLabel markdown-node-label" style=""><p>«AR»</p></span></div></foreignObject></g></g><g class="label-group text" transform="translate(-58.015625, -25.5)"><g class="label" style="font-weight: bolder" transform="translate(0,-13.5)"><foreignObject width="116.03125" height="27"><div xmlns="http://www.w3.org/1999/xhtml" style="display: table-cell; white-space: nowrap; line-height: 1.5; max-width: 145px; text-align: center;"><span class="nodeLabel markdown-node-label" style=""><p>PatientProfile</p></span></div></foreignObject></g></g><g class="members-group text" transform="translate(-91.0390625, 25.5)"><g class="label" style="" transform="translate(0,-13.5)"><foreignObject width="124.0625" height="27"><div xmlns="http://www.w3.org/1999/xhtml" style="display: table-cell; white-space: nowrap; line-height: 1.5; max-width: 165px; text-align: center;"><span class="nodeLabel markdown-node-label" style=""><p>-UUID patientId</p></span></div></foreignObject></g></g><g class="methods-group text" transform="translate(-91.0390625, 76.5)"/><g class="divider" style=""><path d="M-103.0390625 1.5 C-54.346891524745736 1.500236280153341, -5.654720549491472 1.5004725603066822, 103.0390625 1.501 M-103.0390625 1.5 C-48.213878892102045 1.5002660407726822, 6.61130471579591 1.5005320815453644, 103.0390625 1.501" stroke="#475569" stroke-width="1.3" fill="none" stroke-dasharray="0 0" style=""/></g><g class="divider" style=""><path d="M-103.0390625 52.5 C-21.69275024652481 52.50039473530853, 59.65356200695038 52.500789470617065, 103.0390625 52.501 M-103.0390625 52.5 C-30.494714879923535 52.50035202352321, 42.04963274015293 52.500704047046426, 103.0390625 52.501" stroke="#475569" stroke-width="1.3" fill="none" stroke-dasharray="0 0" style=""/></g></g><g class="node default" id="my-svg-classId-TriageAssessment-4" data-look="neo" transform="translate(455.984375, 156)"><g class="basic label-container outer-path"><path d="M-134.796875 -90 L134.796875 -90 L134.796875 90 L-134.796875 90" stroke="none" stroke-width="0" fill="#f8fafc" style=""/><path d="M-134.796875 -90 C-67.40212357771354 -90, -0.007372155427077587 -90, 134.796875 -90 M-134.796875 -90 C-77.78695840156469 -90, -20.77704180312938 -90, 134.796875 -90 M134.796875 -90 C134.796875 -18.03813620699856, 134.796875 53.92372758600288, 134.796875 90 M134.796875 -90 C134.796875 -23.06361846204574, 134.796875 43.87276307590852, 134.796875 90 M134.796875 90 C69.0991094761121 90, 3.4013439522242095 90, -134.796875 90 M134.796875 90 C34.22650263307976 90, -66.34386973384048 90, -134.796875 90 M-134.796875 90 C-134.796875 33.35416715807095, -134.796875 -23.2916656838581, -134.796875 -90 M-134.796875 90 C-134.796875 49.55229590691638, -134.796875 9.104591813832755, -134.796875 -90" stroke="#475569" stroke-width="1.3" fill="none" stroke-dasharray="0 0" style=""/></g><g class="annotation-group text" transform="translate(-22.515625, -66)"><g class="label" style="" transform="translate(0,-13.5)"><foreignObject width="45.03125" height="27"><div xmlns="http://www.w3.org/1999/xhtml" style="display: table-cell; white-space: nowrap; line-height: 1.5; max-width: 90px; text-align: center;"><span class="nodeLabel markdown-node-label" style=""><p>«AR»</p></span></div></foreignObject></g></g><g class="label-group text" transform="translate(-79.546875, -39)"><g class="label" style="font-weight: bolder" transform="translate(0,-13.5)"><foreignObject width="159.09375" height="27"><div xmlns="http://www.w3.org/1999/xhtml" style="display: table-cell; white-space: nowrap; line-height: 1.5; max-width: 182px; text-align: center;"><span class="nodeLabel markdown-node-label" style=""><p>TriageAssessment</p></span></div></foreignObject></g></g><g class="members-group text" transform="translate(-122.796875, 12)"><g class="label" style="" transform="translate(0,-13.5)"><foreignObject width="166.046875" height="27"><div xmlns="http://www.w3.org/1999/xhtml" style="display: table-cell; white-space: nowrap; line-height: 1.5; max-width: 202px; text-align: center;"><span class="nodeLabel markdown-node-label" style=""><p>-UUID assessmentId</p></span></div></foreignObject></g><g class="label" style="" transform="translate(0,13.5)"><foreignObject width="105.03125" height="27"><div xmlns="http://www.w3.org/1999/xhtml" style="display: table-cell; white-space: nowrap; line-height: 1.5; max-width: 148px; text-align: center;"><span class="nodeLabel markdown-node-label" style=""><p>-UUID alertId</p></span></div></foreignObject></g></g><g class="methods-group text" transform="translate(-122.796875, 90)"/><g class="divider" style=""><path d="M-134.796875 -12 C-28.835068369938895 -11.999606957480914, 77.12673826012221 -11.999213914961826, 134.796875 -11.999 M-134.796875 -12 C-79.52082205892037 -11.999794965376827, -24.24476911784076 -11.999589930753654, 134.796875 -11.999" stroke="#475569" stroke-width="1.3" fill="none" stroke-dasharray="0 0" style=""/></g><g class="divider" style=""><path d="M-134.796875 66 C-76.9820459691146 66.00021445166675, -19.16721693822919 66.00042890333349, 134.796875 66.001 M-134.796875 66 C-63.61188968161555 66.00026404538428, 7.5730956367688975 66.00052809076857, 134.796875 66.001" stroke="#475569" stroke-width="1.3" fill="none" stroke-dasharray="0 0" style=""/></g></g></g></g></g><defs><filter id="my-svg-drop-shadow" height="130%" width="130%"><feDropShadow dx="4" dy="4" stdDeviation="0" flood-opacity="0.06" flood-color="#000000"/></filter></defs><defs><filter id="my-svg-drop-shadow-small" height="150%" width="150%"><feDropShadow dx="2" dy="2" stdDeviation="0" flood-opacity="0.06" flood-color="#000000"/></filter></defs><linearGradient id="my-svg-gradient" gradientUnits="objectBoundingBox" x1="0%" y1="0%" x2="100%" y2="0%"><stop offset="0%" stop-color="#475569" stop-opacity="1"/><stop offset="100%" stop-color="hsl(225.8823529412, 60%, 86.6666666667%)" stop-opacity="1"/></linearGradient></svg>